<svg xmlns="http://www.w3.org/2000/svg" version="1.1" width="600px" height="600px" viewBox="0 0 200 200" style="overflow:hidden!important;"><g id="svga-group-wrapper"><g id="svga-group-backs-single"></g><g id="svga-group-humanwrap-move" transform="matrix(1,0,0,1,0,0)"><g id="svga-group-humanwrap" transform="matrix(0.8999996000000001,0,0,0.8999996000000001,10.019027350119003,11.15904508041399)"><g id="svga-group-hair-back-move" transform="matrix(1,0,0,1,0,0)"><g id="svga-group-hair-back"></g></g><g id="svga-group-humanbody-back"><path id="SvgjsPath11674" d="M77.6 118.3c0 19.3 3.4 44.1-10 51.9-13.4 7.9-31.9 11.3-37.8 22s-4.4 25.3-4.4 25.3h149.3s.7-18.9-5.1-26.4c-8.1-10.4-27.8-15.5-37.7-20.9s-13.4-25.1-13.4-52.4l-40.9.5z" fill="#ffffff" stroke-width="none" opacity="1"></path></g><g id="svga-group-chinshadow-single"></g><g id="svga-group-humanbody-front"><path id="SvgjsPath11675" d="M175.8 218.7H24.4l-.1-1c-.1-.6-1.5-15.1 4.5-26 4.1-7.4 13.5-11.3 23.5-15.5 5-2.1 10.2-4.3 14.8-6.9 10.6-6.2 10.1-23.9 9.6-41-.1-3.5-.2-6.8-.2-10v-1.1l43.2-.4v1.1c0 29.9 4.2 46.7 12.8 51.4 2.9 1.6 6.7 3.2 10.8 4.9 10 4.1 21.3 8.8 27.2 16.3 6.1 7.7 5.4 26.4 5.4 27.1l-.1 1.1zm-149.3-2.2h147.1c0-4.1-.2-18.5-4.9-24.6-5.5-7-16.6-11.6-26.3-15.6-4.1-1.7-8-3.3-11-5-5.1-2.8-8.7-8.9-10.9-18.7-2-8.4-2.9-19.4-3-33.5l-38.6.4c0 2.8.1 5.7.2 8.8.5 17.8 1 36.1-10.7 43-4.7 2.7-9.9 4.9-15 7.1-9.6 4-18.7 7.8-22.4 14.5-5 8.6-4.7 20.1-4.5 23.6z" fill="#000000" stroke-width="none" opacity="1"></path><path id="SvgjsPath11676" d="M93.9 153.8c-.5 1.8-.4 3.4.5 5.2.8 1.6 2.1 2.7 3.9 2.9.4 0 .7-.5.5-.8-1.6-2.2-3.5-4.2-3.7-7.1 0-.7-1-.9-1.2-.2z" fill="#000000" stroke-width="none" opacity="1"></path><path id="SvgjsPath11677" d="M112.5 187.5c8.8.5 18.1-.7 26.6-2.9.7-.2.6-1.4-.2-1.3-8.8 1.1-17.7 2-26.5 3.3-.5.1-.3.9.1.9z" fill="#000000" stroke-width="none" opacity="1"></path><path id="SvgjsPath11678" d="M63.1 182.5c3.8.9 7.6 1.9 11.5 2.8 3.6.8 7.4 2 11.1 2.1.7 0 .8-.9.2-1.2-3.5-1.4-7.5-1.7-11.2-2.5-3.8-.7-7.5-1.3-11.3-2-.5 0-.7.7-.3.8z" fill="#000000" stroke-width="none" opacity="1"></path></g><g id="svga-group-clothes-single"><path id="SvgjsPath11562" d="M63.33 170.93s-12.22 5.29-16.7 6.92c-4.48 1.63-12.63 5.91-17.11 11.2-4.48 5.29-5.09 12.63-5.7 17.92-.61 5.29.58 11.73.58 11.73h152.36s.2-14.17-2.65-22.32-5.7-9.78-14.87-15.48c-9.16-5.7-18.53-7.94-26.07-11.61 0 0-3.05 12.83-30.55 14.26-27.48 1.43-34-6.92-39.29-12.62z" fill="#ffffff" stroke-width="none" opacity="1"></path><path id="SvgjsPath11563" d="M175.06 196.05c-2.9-8.3-5.87-10.15-14.69-15.63l-.6-.37c-5.81-3.62-11.81-5.9-17.1-7.91-3.23-1.23-6.28-2.39-9.06-3.75a1.02 1.02 0 0 0-.87 0c-.27.13-.47.38-.54.67-.03.12-3.19 12.12-29.63 13.49-11.02.58-18.6-.45-24.07-2.24-.04-.14-.21-.21-.31-.1-.46-.16-.91-.31-1.34-.48.01-.02.01-.04.02-.06.08-.25-.3-.35-.39-.11 0 .01 0 .01-.01.02-6.05-2.41-9.18-5.81-11.8-8.66l-.63-.68c-.29-.31-.74-.4-1.13-.24-.12.05-12.24 5.3-16.64 6.9-3.9 1.42-12.58 5.64-17.53 11.49-4.44 5.25-5.25 12.38-5.83 17.59l-.1.86c-.62 5.38.54 11.76.59 12.02.09.47.5.82.98.82h152.36a1 1 0 0 0 1-.99c.03-.56.19-14.42-2.68-22.64zm-4.34-4.67c-.51-.5-1.02-1-1.52-1.51.1-.08.19-.16.26-.22.46.55.87 1.12 1.26 1.73zm-1.89-1.17c.98 1.01 1.94 2.08 2.94 3.08.48 1 .94 2.12 1.4 3.42l.03.11c-1.74-1.87-3.76-3.55-5.68-5.25.51-.59.95-1.04 1.31-1.36zm-66.15-5.66c23.41-1.21 29.59-10.57 31.06-13.88.7.33 1.42.64 2.15.95-1.03 1.47-3.85 5.21-8.22 8.8-3.79 3.11-12.73 6.36-23.97 7.02.1-.66.16-1.34.25-2 .03-.19-.28-.19-.3 0-.08.66-.2 1.34-.27 2.01-.68.04-1.37.06-2.07.08.11-.96.07-1.97.08-2.92l1.29-.06zm-4.2 2.99c-.61-.01-1.22-.03-1.83-.05.07-.92.03-1.87.04-2.79.62 0 1.25 0 1.9-.02-.05.93-.14 1.92-.11 2.86zm.5-2.86c.67-.01 1.35-.03 2.04-.06-.08.95-.2 1.95-.18 2.92-.6.01-1.2.02-1.82.01.06-.95-.01-1.94-.04-2.87zm-2.73.03c-.03.91-.09 1.85-.06 2.76a65.89 65.89 0 0 1-3.39-.24c.04-.87.02-1.74.01-2.6 1.1.04 2.25.07 3.44.08zm-18.35-2.47c.39.13.8.25 1.21.37-.18.58-.36 1.18-.48 1.77-.35-.11-.7-.23-1.04-.34.11-.45.11-.94.2-1.4.04-.15.08-.27.11-.4zm1.71.51c.27.07.55.15.83.22-.1.6-.25 1.24-.31 1.86-.32-.09-.63-.18-.94-.28.18-.58.31-1.19.42-1.8zm1.26.33c1.02.25 2.11.48 3.26.67-.15.66-.3 1.35-.36 2.02a66.49 66.49 0 0 1-3.1-.79c.12-.62.14-1.29.2-1.9zm3.79.76c.58.09 1.17.18 1.78.26-.23.71-.39 1.46-.38 2.16-.43-.08-.87-.17-1.3-.26l-.39-.09c.15-.67.23-1.39.29-2.07zm2.14 1.07c.05-.25.12-.5.19-.75.45.06.92.11 1.39.15-.11.77-.22 1.55-.21 2.32-.51-.08-1.03-.17-1.55-.27.07-.48.08-.98.18-1.45zm2.02-.55c.48.05.97.09 1.47.12-.21.76-.38 1.63-.34 2.42-.46-.06-.92-.13-1.38-.2.16-.75.21-1.55.25-2.34zm1.67 1.71c.05-.53.15-1.04.28-1.55l1.56.09c-.03.85-.07 1.71-.06 2.57-.6-.06-1.2-.13-1.81-.21.01-.3 0-.6.03-.9zm-13.05-3.99c-.03.09-.07.18-.09.28-.11.45-.26 1-.24 1.5-.48-.17-.95-.34-1.41-.51.21-.55.4-1.11.57-1.68.38.14.77.28 1.17.41zm-2.2 1.08c-.4-.16-.8-.32-1.18-.48.22-.56.4-1.11.61-1.67.36.16.74.32 1.13.47-.21.56-.4 1.12-.56 1.68zm-6.64-5.73c-.52.46-.95 1.02-1.3 1.62-.5-.34-.96-.67-1.4-1 .55-.48 1.12-.97 1.64-1.48.34.28.69.57 1.06.86zm.33.25c.4.3.82.6 1.26.89-.36.33-.68.72-1 1.09l-.33.39c-.45-.27-.88-.54-1.29-.82.4-.57.86-1.07 1.36-1.55zm.65 2.22c.32-.36.66-.72.93-1.12.3.19.61.39.93.58-.46.42-.86.94-1.18 1.49a30.4 30.4 0 0 1-1.01-.57c.1-.13.22-.25.33-.38zm2.29-.29c.72.41 1.49.8 2.31 1.18-.27.54-.49 1.11-.59 1.69-1.06-.47-2.05-.95-2.96-1.43.38-.52.8-.97 1.24-1.44zm-4.71-3.37c-.55.49-1.08 1.03-1.6 1.55-.67-.52-1.26-1.03-1.78-1.51.27-.35.56-.67.89-.96.27-.23.56-.42.85-.61.51.5 1.05 1.01 1.64 1.53zm-1.98-1.88c-.66.4-1.24 1.03-1.68 1.65-.67-.64-1.21-1.23-1.63-1.74.33-.23.65-.47.97-.71.31-.23.63-.45.94-.68.44.49.91.98 1.4 1.48zm-2.11-2.24.14.16c.07.08.14.15.21.23-.36.26-.71.54-1.06.8l-.81.6c-.26-.33-.48-.63-.64-.87.92-.38 1.67-.7 2.16-.92zm-34.94 21.39c3.3 2.32 6.88 4.55 10.66 6 .42.86.84 1.79 1.24 2.78-3.8-2.44-8.08-4.62-12.15-6.46-.21-.09-.38.18-.18.31 3.94 2.51 8.31 5 12.62 6.88.35.91.69 1.86 1.01 2.87-4.79-2.96-10-5.52-15.06-8.01.58-2.22 1.42-4.4 2.68-6.38 2.36 1.56 4.76 3.26 7.31 4.42.17.08.4-.15.22-.29-2.21-1.75-4.8-3.12-7.27-4.52.24-.35.49-.69.75-1.02 1.39.84 2.81 1.74 4.29 2.36 1.28 1.53 2.75 3.62 4.15 6.34-3.39-1.84-6.81-3.56-10.08-5.64-.21-.17-.41.2-.19.36zm2.17-3.83c.17-.2.36-.4.54-.6.43.32 1.27 1.01 2.32 2.12-.93-.55-1.9-1.04-2.86-1.52zm-5.05 28.02c-.09-.6-.22-1.5-.33-2.57.27.18.53.37.83.48.19.07.33-.2.2-.34-.29-.29-.68-.47-1.03-.69a.21.21 0 0 1-.06-.04c-.06-.64-.11-1.33-.15-2.05 2.35 1.98 4.97 3.93 7.81 5 .17.06.25-.19.12-.28-2.66-1.83-5.42-3.37-7.96-5.37-.05-1.15-.05-2.35.03-3.51 5.06 3.02 10.09 6.25 15.34 8.91.21.11.39-.19.19-.32-4.95-3.29-10.31-6.1-15.47-9.05-.01-.01-.02 0-.03 0 .02-.27.05-.53.08-.79l.1-.86c.28-2.47.59-5.22 1.27-7.94 4.87 2.8 9.89 5.66 15.01 7.97.1.05.2 0 .25-.07.53 1.69 1 3.52 1.41 5.51-5.55-3.1-11.15-6.03-16.6-9.31-.25-.15-.47.23-.23.39 5.33 3.59 11.04 7.02 16.97 9.57.23 1.19.43 2.43.61 3.73-5.98-3.51-12.01-6.6-17.65-10.69-.21-.15-.4.19-.2.35 5.39 4.15 11.38 8.26 17.81 10.59.03.01.05 0 .07 0 .06.46.12.92.17 1.39H25.25zm20.56 0c-2.15-19.99-10.98-28.11-13.53-30.06 4.49-4.18 10.97-7.49 14.7-8.85 2.71-.99 8.13-3.26 12.08-4.94 1.5 2.4 7.65 10.32 25.28 14.1a73.48 73.48 0 0 0 15.4 1.63c13.64 0 24.62-3.84 29.22-7.62 5-4.11 8-8.31 8.84-9.57 1.36.54 2.75 1.07 4.18 1.62 5.46 2.08 11.11 4.23 16.75 7.74l.6.37c4.04 2.51 6.74 4.2 8.76 6.08-.7.55-1.94 1.69-3.35 3.62-.1.03-.18.12-.17.23-3.01 4.21-6.75 12.03-7.84 25.65H45.81zm119.12 0c-1.79-1.72-3.73-3.28-5.65-4.85.14-.98.3-1.93.47-2.84 2.53 2.85 5.37 5.59 8.57 7.69h-3.39zm-3.55 0c-.74-.73-1.62-1.34-2.47-1.94.09-.83.19-1.64.3-2.42 1.71 1.5 3.43 3 5.24 4.36h-3.07zm-2.52-1.47c.61.52 1.24 1.03 1.9 1.47h-2.04c.04-.5.09-.99.14-1.47zm10.35 1.47c-3.34-2.56-6.52-5.13-9.35-8.27.19-.97.4-1.9.62-2.78 3.51 4.03 7.52 7.91 12.05 10.78.21.13.47-.19.27-.35-4.28-3.46-8.43-6.85-12.19-10.89-.01-.01-.01 0-.02-.01a49 49 0 0 1 .96-3.3c4 3.23 7.92 6.59 12.08 9.62.16.12.37-.15.22-.28-3.91-3.39-8.09-6.46-12.16-9.65-.01-.01-.02 0-.03-.01.5-1.48 1.02-2.81 1.56-4 3.48 3.92 7.31 7.78 11.67 10.7.18.12.39-.15.23-.29-3.99-3.56-8.02-6.94-11.7-10.83.39-.85.79-1.62 1.19-2.33 3.09 3.13 6.11 6.5 9.53 9.22.18.14.4-.07.25-.25-2.82-3.39-6.3-6.35-9.53-9.39.39-.66.76-1.26 1.13-1.79 2.55 2.64 5.08 5.41 7.93 7.66.17.13.37-.07.24-.24-2.31-2.84-5.16-5.34-7.87-7.85.32-.45.63-.85.93-1.21 2.02 1.95 4.01 4.01 6.25 5.68 2.06 6.71 2.29 16.89 2.3 20.08h-6.56z" fill="#000000" stroke-width="none" opacity="1"></path></g><g id="svga-group-head" transform="matrix(1,0,0,1,0,0)"><g id="svga-group-ears-left-move" transform="matrix(1,0,0,1,0,0)"><g id="svga-group-ears-left"><path id="SvgjsPath11572" d="M57.9 81.4s-3-4.7-6.1-5.6-6.6 2.1-6.1 7.8c.6 5.7 8.7 18.9 15.9 19.7 6.2.7-1.1-18.5-3.7-21.9z" fill="#ffffff" stroke-width="none" opacity="1"></path><path id="SvgjsPath11573" d="M61.5 104.2c-7.7-.8-16.1-14.5-16.7-20.4-.3-3.4.8-6.4 3-7.9 1.3-.9 2.9-1.2 4.4-.8 3.3.9 6.2 5.3 6.6 5.9 2.1 2.7 8.5 18 5.5 22-.5.7-1.4 1.1-2.3 1.1-.3.1-.4.1-.5.1zM48.9 77.1c-1.7 1.1-2.5 3.6-2.3 6.4.5 5.4 8.5 18.3 15 18.9.4 0 .7 0 .9-.3 2.1-2.9-3.2-17.2-5.5-20.3v-.1c-.8-1.2-3.3-4.6-5.5-5.2-.2-.1-.5-.1-.7-.1-.7.2-1.3.4-1.9.7z" fill="#000000" stroke-width="none" opacity="1"></path><path id="SvgjsPath11574" d="M50.5 79.3c2.6 1.4 5 5.6 6.2 9.6v.1c0 .3-.2.4-.3.1-.4-1.2-1-1.2-1.7 0-.2.7-.1 1.5.1 2.3.2.7.5 1.4.8 1.9.6 1.2 1.4 2 2.1 3 .2.3 0 .7-.2.5-1.6-1-3.9-4.6-3.4-7.6.2-1.4 1.1-2.2 1.8-1.7-.9-2.1-1.9-3.9-3.2-5.4-.7-.8-2.3-2.7-3.1-2.3-1.5.6-.7 4.6-.5 6.4 0 .3-.2.4-.3.1-1-2.9-1.1-8.5 1.7-7z" fill="#000000" stroke-width="none" opacity="1"></path><path id="SvgjsPath11575" d="M56.9 97.8c-2.8-.9-4.8-4.6-6-8.8-.7-2.5-2.1-8.3.6-8.2.2 0 .3.5.1.6-2.5 1.1.2 8.9 1 10.7 1.1 2.6 2.5 4.3 4.3 5.2.2.2.2.6 0 .5z" fill="#000000" stroke-width="none" opacity="1"></path></g></g><g id="svga-group-ears-right-move" transform="matrix(1,0,0,1,0,0)"><g id="svga-group-ears-right"><path id="SvgjsPath11576" d="M142.1 81.4s3-4.7 6.1-5.6 6.6 2.1 6.1 7.8c-.6 5.7-8.7 18.9-15.9 19.7-6.2.7 1.1-18.5 3.7-21.9z" fill="#ffffff" stroke-width="none" opacity="1"></path><path id="SvgjsPath11577" d="M138.1 104.2c-1 0-1.8-.4-2.3-1.1-2.9-4 3.4-19.3 5.5-22 .4-.6 3.3-5.1 6.6-5.9 1.5-.4 3-.1 4.4.8 2.2 1.5 3.3 4.4 3 7.9-.6 5.9-9 19.6-16.7 20.4-.2-.1-.3-.1-.5-.1zm11.1-27.6c-.2 0-.5 0-.7.1-2.2.6-4.7 3.9-5.5 5.2v.1c-2.4 3-7.7 17.4-5.5 20.3.2.3.4.4.9.3 6.5-.7 14.5-13.6 15-18.9.3-2.9-.6-5.3-2.3-6.4-.6-.5-1.2-.7-1.9-.7z" fill="#000000" stroke-width="none" opacity="1"></path><path id="SvgjsPath11578" d="M149.5 79.3c-2.6 1.4-5 5.6-6.2 9.6v.1c0 .3.2.4.3.1.4-1.2 1-1.2 1.7 0 .2.7.1 1.5-.1 2.3-.2.7-.5 1.4-.8 1.9-.6 1.2-1.4 2-2.1 3-.2.3 0 .7.2.5 1.6-1 3.9-4.6 3.4-7.6-.2-1.4-1.1-2.2-1.8-1.7.9-2.1 1.9-3.9 3.2-5.4.7-.8 2.3-2.7 3.1-2.3 1.5.6.7 4.6.5 6.4 0 .3.2.4.3.1 1-2.9 1.1-8.5-1.7-7z" fill="#000000" stroke-width="none" opacity="1"></path><path id="SvgjsPath11579" d="M143.1 97.8c2.8-.9 4.8-4.6 6-8.8.7-2.5 2.1-8.3-.6-8.2-.2 0-.3.5-.1.6 2.5 1.1-.2 8.9-1 10.7-1.1 2.6-2.5 4.3-4.3 5.2-.2.2-.2.6 0 .5z" fill="#000000" stroke-width="none" opacity="1"></path></g></g><g id="svga-group-faceshape-wrap"><g id="svga-group-faceshape-single"><path id="SvgjsPath11656" d="M143.8 67.9c-.1-3.3-.3-8.9-1.4-14.2-2.3-11.4-15.1-28.8-42.4-28.8S63.6 38.2 59.6 48.1c-2.5 6.2-3.2 15.2-3.4 19.7 0 0-1.7 23 1.3 28.3 3 5.2 9.6 11.2 14.5 20.6 3.6 6.9 3.5 17.3 8.5 21.3s30.2 4.3 35.7 1.3c5.5-3 6.6-11.6 10.3-18.5 3.9-7.3 12.4-16 15.7-20.7 3.1-4.7 1.6-32.2 1.6-32.2z" fill="#ffffff" stroke-width="none" opacity="1"></path><path id="SvgjsPath11657" d="M100.9 142.5c-8.7 0-18.1-1.2-21.1-3.6-3.2-2.6-4.5-7.4-5.7-12.4-.8-3.2-1.7-6.5-3.1-9.2-2.9-5.5-6.3-9.8-9.4-13.6-2.1-2.6-3.9-4.8-5.1-7-3.1-5.3-1.6-26.4-1.4-28.9.2-4.8.9-13.8 3.4-20.1 6.6-16.2 20.1-24 41.5-24 12.3 0 23.2 3.6 31.3 10.4 6.3 5.2 10.9 12.5 12.2 19.3 1.1 5.5 1.3 11.4 1.4 14.4.2 3 1.4 28-1.9 32.9-1.2 1.8-3.1 4-5.2 6.5-3.6 4.3-8 9.6-10.4 14.1-1.2 2.2-2.1 4.7-3 7-1.9 5-3.7 9.8-7.7 12-2.6 1.5-9 2.2-15.8 2.2zM100 26c-20.3 0-33.2 7.4-39.4 22.6-2.4 6-3.1 14.7-3.3 19.3-.5 6.3-1.2 23.6 1.1 27.6 1.2 2 2.9 4.2 4.9 6.7 3.1 3.9 6.6 8.2 9.6 13.9 1.5 2.9 2.4 6.4 3.2 9.7 1.2 4.7 2.3 9.1 5 11.2 4.5 3.6 29.4 4 34.4 1.2 3.3-1.8 4.9-6.2 6.7-10.8.9-2.4 1.9-4.9 3.1-7.3 2.5-4.7 7-10.2 10.7-14.5 2.1-2.5 3.9-4.7 5.1-6.4 2.2-3.2 2.1-20.6 1.6-31.5 0-3-.3-8.7-1.4-14-1.3-6.4-5.6-13.1-11.5-18-7.7-6.3-18-9.7-29.8-9.7z" fill="#000000" stroke-width="none" opacity="1"></path></g></g><g id="svga-group-mouth-single-move" transform="matrix(1,0,0,1,0,0)"><g id="svga-group-mouth-single"><path id="SvgjsPath11863" d="M114.77 119.83c-1.13.44-2.28.54-3.44.5-1.86-.99-3.84-2.01-5.96-2.23-2.25-.23-4.37 1.18-6.55.6-1.62-.43-2.83-1.07-4.53-.62-2.55.67-4.74 2.91-7.53 1.8-.08-.03-.14-.02-.19.01-.21-.08-.41-.16-.62-.26-.33-.16-.61.33-.29.49.82.41 1.64.6 2.47.68.01.01 0 .02.02.03 6.71 6.02 16.81 5.73 23.65.07 1.04.01 2.08-.11 3.11-.52.35-.13.2-.68-.14-.55zm-16.76-.81c1.63.54 2.65.39 4.28-.03 2.77-.72 5.16.06 7.55 1.23-2.67-.3-5.34-.96-7.92.34-1.04.52-1.2.66-2.56.65-1.39-.01-1.47-.19-2.53-.68-.69-.31-1.37-.49-2.12-.57-1.26-.13-2.5.04-3.73.18 2.54-1.04 4.18-2.06 7.03-1.12zm-8.95 1.81c1.16 0 2.34-.18 3.57-.28 1.98-.16 3.32.32 5.07 1.13.7.32 1.27.57 2.06.48 1.3-.16 2.36-1.22 3.58-1.61 1.62-.53 3.37-.25 5.01-.01.87.13 1.73.26 2.58.32-6.42 4.96-15.56 5.2-21.87-.03z" fill="#000000" stroke-width="none" opacity="1"></path></g></g><g id="svga-group-eyes-left-move" transform="matrix(1,0,0,1,0,0)"><g id="svga-group-eyes-left"><g id="svga-group-eyesback-left"></g><g id="svga-group-eyesiriswrapper-left"><g id="svga-group-eyesiriscontrol-left" transform="matrix(1,0,0,1,0,0)"><g id="svga-group-eyesiris-left"><path id="SvgjsPath11693" d="M74.4 87.5c.3 1.2 1 2.2 1.9 2.9.2.2.5.3.7.5s.5.3.8.3c.5.2 1.1.3 1.7.2.6 0 1.1-.2 1.7-.4.5-.2 1-.6 1.4-1.1.4-.4.7-1 .8-1.5.2-.6.2-1.2.1-1.7-.2-1.2-.8-2.2-1.7-2.9-.4-.4-.9-.6-1.5-.8-.6-.1-1.1-.2-1.7-.2s-1.1.2-1.7.4c-.5.2-.9.6-1.3 1-.2.2-.4.4-.6.7-.2.2-.3.5-.4.8-.1.3-.2.6-.2.9.1.3 0 .6 0 .9-.1-.7-.1-1.3 0-1.9l.3-.9c.2-.3.3-.5.5-.8.2-.2.4-.5.6-.7.2-.2.5-.4.8-.5.6-.3 1.2-.4 1.8-.5.6-.1 1.3 0 1.9.2.6.2 1.2.5 1.7.9s.9.9 1.2 1.5c.3.6.4 1.2.5 1.8v.9c0 .3-.1.6-.2.9-.2.6-.5 1.1-.9 1.6s-.9.9-1.4 1.2-1.1.8-1.7.8c-.6.1-1.3 0-1.9-.2-.6-.2-1.2-.6-1.6-1s-.8-.9-1.1-1.5c-.4-.5-.5-1.1-.5-1.8zm5.5.6c.2-.2.3-.5.3-.8 0-.7-.5-1.2-1.2-1.2h-.1c.1.2.1.4.1.5 0 .4-.4.6-.8.4 0 0-.2-.1-.2-.2-.1.1-.1.3-.1.4 0 .7.5 1.2 1.2 1.2.2 0 .3 0 .4-.1.1-.1.2-.2.4-.2zm-1.1-2.4c0 .1 0 .1.1.2h.2c.8 0 1.5.7 1.5 1.5 0 .3-.1.6-.2.8.1.1.2.1.2.2.2-.3.3-.7.3-1 0-1-.8-1.8-1.8-1.8h-.3v.1zm.6 3h-.3c-.8 0-1.5-.7-1.5-1.5 0-.2.1-.5.2-.7-.1-.1-.1-.2-.2-.3-.2.3-.3.6-.3 1 0 1 .8 1.8 1.8 1.8.2 0 .3 0 .4-.1-.1 0-.1-.1-.1-.2z" fill="#000000" stroke-width="none" opacity="1"></path></g></g></g><g id="svga-group-eyesfront-left"><path id="SvgjsPath11622" d="M79 72.1c-8.2 0-14.8 6.6-14.8 14.8s6.6 14.8 14.8 14.8 14.8-6.6 14.8-14.8c0-8.1-6.6-14.8-14.8-14.8zm3.1 20.1c-5.3.7-12.6-1-14.2-1.7s-2.8-2.6 1.3-4.1 7.8-1.6 13.7-.4 7.9 3.7 7.9 3.7c-.3.4-3.4 1.9-8.7 2.5z" fill="#ffffff" stroke-width="none" opacity="1"></path><path id="SvgjsPath11623" d="M66.3 90.1c-.4-.5-.4-1.2 0-1.9 1.3-2.2 7.1-4.6 14.1-3.3 6 1.1 9.1 3 10.5 4.2.1-.1.1-.3.1-.4.1-.9-.8-2.1-2.3-3.1-3.5-2.4-9.7-3.8-14.9-1.2-.2.1-.5 0-.6-.2s0-.5.2-.6c5.5-2.8 12.1-1.3 15.8 1.3 1.9 1.3 2.9 2.7 2.7 4 0 .3-.1.6-.3.9l.2.2c.2.2.1.5-.1.6-.2.2-.5.1-.6-.1l-.1-.1c-.2.2-.5.3-.8.5-3.3 1.4-7.3 1.9-11.1 1.9-6.2 0-11.8-1.4-12.8-2.7zm14-4.3c-6.9-1.2-12.2 1.2-13.2 2.9-.3.5-.1.7-.1.8 1.3 1.7 14.2 4.1 22.7.5.2-.1.4-.2.5-.3-1.2-1-4.1-2.9-9.9-3.9z" fill="#000000" stroke-width="none" opacity="1"></path></g></g></g><g id="svga-group-eyes-right-move" transform="matrix(1,0,0,1,0,0)"><g id="svga-group-eyes-right"><g id="svga-group-eyesback-right"></g><g id="svga-group-eyesiriswrapper-right"><g id="svga-group-eyesiriscontrol-right" transform="matrix(1,0,0,1,0,0)"><g id="svga-group-eyesiris-right"><path id="SvgjsPath11694" d="M116.3 87.5c.3 1.2 1 2.2 1.9 2.9.2.2.5.3.7.5s.5.3.8.3c.5.2 1.1.3 1.7.2.6 0 1.1-.2 1.7-.4.5-.2 1-.6 1.4-1.1.4-.4.7-1 .8-1.5.2-.6.2-1.2.1-1.7-.2-1.2-.8-2.2-1.7-2.9-.4-.4-.9-.6-1.5-.8-.6-.1-1.1-.2-1.7-.2s-1.1.2-1.7.4c-.5.2-.9.6-1.3 1-.2.2-.4.4-.6.7-.2.2-.3.5-.4.8-.1.3-.2.6-.2.9.1.3.1.6 0 .9-.1-.7-.1-1.3 0-1.9l.3-.9c.2-.3.3-.5.5-.8.2-.2.4-.5.6-.7.2-.2.5-.4.8-.5.6-.3 1.2-.4 1.8-.5.6-.1 1.3 0 1.9.2.6.2 1.2.5 1.7.9s.9.9 1.2 1.5c.3.6.4 1.2.5 1.8v.9c0 .3-.1.6-.2.9-.2.6-.5 1.1-.9 1.6s-.9.9-1.4 1.2-1.1.8-1.7.8c-.6.1-1.3 0-1.9-.2-.6-.2-1.2-.6-1.6-1s-.8-.9-1.1-1.5c-.3-.5-.5-1.1-.5-1.8zm5.5.6c.2-.2.3-.5.3-.8 0-.7-.5-1.2-1.2-1.2h-.1c.1.2.1.4.1.5 0 .4-.4.6-.8.4-.1-.1-.2-.2-.3-.2-.1.1-.1.3-.1.4 0 .7.5 1.2 1.2 1.2.2 0 .3 0 .4-.1.2-.1.4-.2.5-.2zm-1.1-2.4c0 .1 0 .1.1.2h.2c.8 0 1.5.7 1.5 1.5 0 .3-.1.6-.2.8.1.1.2.1.2.2.2-.3.3-.7.3-1 0-1-.8-1.8-1.8-1.8h-.3v.1zm.6 3h-.3c-.8 0-1.5-.7-1.5-1.5 0-.2.1-.5.2-.7-.1-.1-.1-.2-.2-.3-.2.3-.3.6-.3 1 0 1 .8 1.8 1.8 1.8.2 0 .3 0 .4-.1 0 0-.1-.1-.1-.2z" fill="#000000" stroke-width="none" opacity="1"></path></g></g></g><g id="svga-group-eyesfront-right"><path id="SvgjsPath11624" d="M121 72.1c-8.2 0-14.8 6.6-14.8 14.8s6.6 14.8 14.8 14.8 14.8-6.6 14.8-14.8c0-8.1-6.6-14.8-14.8-14.8zm11 18.5c-1.6.6-8.9 2.4-14.2 1.7-5.3-.7-8.4-2.2-8.7-2.5 0 0 2-2.4 7.9-3.7 5.9-1.3 9.6-1.2 13.7.4s3 3.4 1.3 4.1z" fill="#ffffff" stroke-width="none" opacity="1"></path><path id="SvgjsPath11627" d="M133.6 88.2c-1.3-2.2-7.1-4.6-14.1-3.3-1.5.3-2.8.6-4 1-.1-.7-.3-1.4-.2-2.1.6-.2 1.2-.3 1.8-.4-.2.6-.2 1.2.1 1.8.1.2.4.1.4-.1-.1-.6-.2-1.1 0-1.7 2.8-.4 5.8-.2 8.6 1.2.2.1.5 0 .6-.2s0-.5-.2-.6c-5.5-2.8-12.1-1.3-15.8 1.3-1.9 1.3-2.9 2.7-2.7 4 0 .3.1.6.3.9l-.2.2c-.2.2-.1.5.1.6.2.2.5.1.6-.1l.1-.1c.2.2.5.3.8.5 3.3 1.4 7.3 1.9 11.1 1.9 6.2 0 11.8-1.4 12.8-2.7.4-.8.4-1.4-.1-2.1zm-18.7-4.4c-.1.7-.1 1.5.2 2.1-.5.2-1 .3-1.4.5 0-.7-.1-1.4-.1-2.1.5-.2.9-.3 1.3-.5zm-3.2 1.6c.5-.3 1-.6 1.5-.8-.1.7-.1 1.4.2 2-.7.3-1.3.5-1.8.8 0-.3-.1-.7-.1-1 0-.4.1-.7.2-1zm-1.5 1.1c.2-.2.5-.5.8-.7-.1.6-.1 1.3.4 1.7-.3.2-.6.4-.9.5-.1-.2-.2-.4-.2-.7-.1-.2-.1-.5-.1-.8zm-.9 1.4c0-.2 0-.3.1-.5l.3-.3c0 .5.1.9.3 1.3-.2.2-.5.3-.6.5 0-.4-.1-.7-.1-1zm23.6 1.6c-1.3 1.7-14.2 4.1-22.7.5-.2-.1-.4-.2-.5-.3 1.3-1 4.2-2.9 10-3.9 6.9-1.2 12.2 1.2 13.2 2.9.3.5.1.7 0 .8zm-13.1-6.3v.8c0 .1.2.1.2 0v-.8c0-.1-.2-.1-.2 0z" fill="#000000" stroke-width="none" opacity="1"></path></g></g></g><g id="svga-group-facehighlight-single"></g><g id="svga-group-eyebrows-left-move" transform="matrix(1,0,0,1,0,0)"><g id="svga-group-eyebrows-left-rotate" transform="matrix(1,1.7453292519943295e-9,-1.7453292519943295e-9,1,1.2267490490103228e-7,-1.362929253900802e-7)"><g id="svga-group-eyebrows-left"><path id="SvgjsPath11538" d="M70.67 64.23c3.47-1.02 20.5 4.56 20.86 5.78.36 1.22.7 5.93-.55 6.46-1.25.54-18.75-7.56-20.49-6.88-1.73.68-5.21 6.18-6.11 6.11-.89-.07 4.68-10.99 6.29-11.47z" fill="#ffffff" stroke-width="none" opacity="1"></path><path id="SvgjsPath11539" d="M64.33 76.2c.66.05 1.32-.67 3.04-2.75 1.14-1.38 2.55-3.1 3.32-3.4.9-.21 6.99 2.19 11.01 3.79 6.61 2.62 8.66 3.35 9.42 3.12.03-.01.05-.01.08-.02 1.83-.78 1.11-6.27.87-7.09-.25-.84-3.93-2.22-6.72-3.16a.428.428 0 0 0-.28-.09c-1.18-.38-2.16-.69-2.61-.83-2.81-.84-9.61-2.73-11.92-2.05-1.88.55-6.89 10.55-6.77 11.88.02.42.32.59.56.6zm3.63-7.48 1.89.63c-.41.27-.85.67-1.32 1.15-.53.12-1.07.15-1.61.12.33-.63.68-1.27 1.04-1.9zm3.19.34-2.83-.95c1-1.7 1.95-3.08 2.44-3.35 1.43 1.7 2.77 3.48 4.01 5.31-1.67-.58-2.86-.92-3.62-1.01zm4.75 1.42c-1.33-2.03-2.78-4-4.34-5.87.64-.03 1.48.04 2.46.19l4.06 6.5c-.78-.3-1.51-.57-2.18-.82zm9.08-2.82c1.01 2.41 1.92 4.89 2.71 7.38-1.24-.46-2.7-1.02-4.12-1.58-.99-1.49-1.97-2.91-2.92-4.28-.78-1.13-1.57-2.29-2.38-3.49 2.22.56 4.61 1.27 6.71 1.97zm3.58 7.68c-.77-2.48-1.67-4.96-2.67-7.38 1.11.38 2.11.75 2.93 1.1.67 2.17.98 4.41.96 6.69-.34-.1-.76-.24-1.22-.41zm2.25.64c-.07 0-.18-.01-.29-.04.04-2.21-.24-4.39-.84-6.51.7.32 1.19.59 1.36.78.4 1.49.42 5.35-.23 5.77zm-11.6-4.24-4.23-6.77c.7.13 1.46.29 2.25.47.97 1.44 1.9 2.81 2.81 4.12.76 1.1 1.55 2.24 2.34 3.42-.08-.03-.17-.07-.24-.1-1.06-.41-2.03-.79-2.93-1.14zM65.1 74.51c.31-.8.84-1.96 1.47-3.21.41.05.82.04 1.24 0-.43.49-.86 1.01-1.29 1.53-.44.54-.98 1.19-1.42 1.68z" fill="#000000" stroke-width="none" opacity="1"></path></g></g></g><g id="svga-group-eyebrows-right-move" transform="matrix(1,0,0,1,0,0)"><g id="svga-group-eyebrows-right-rotate" transform="matrix(1,1.7453292519943295e-9,-1.7453292519943295e-9,1,1.2287968331747834e-7,-2.129587102217556e-7)"><g id="svga-group-eyebrows-right"><path id="SvgjsPath11540" d="M129.1 64.02c-3.5-.92-20.35 5.2-20.67 6.43-.32 1.23-.51 5.94.76 6.44s18.5-8.15 20.26-7.52c1.76.63 5.4 6.01 6.3 5.91.88-.09-5.02-10.84-6.65-11.26z" fill="#ffffff" stroke-width="none" opacity="1"></path><path id="SvgjsPath11541" d="M136.37 75.18c.07-1.34-5.25-11.17-7.14-11.67-2.33-.61-9.06 1.49-11.85 2.42-.45.15-1.43.48-2.58.91a.37.37 0 0 0-.27.09c-2.77 1.02-6.39 2.51-6.62 3.37-.21.82-.78 6.33 1.09 7.06.03.01.05.01.08.02.76.2 2.78-.6 9.32-3.42 3.97-1.72 9.98-4.31 10.89-4.13.79.28 2.25 1.95 3.43 3.29 1.78 2.02 2.46 2.73 3.12 2.66.22-.01.51-.19.53-.6zm-3.32-4.89c-.54.05-1.07.04-1.61-.07-.48-.47-.93-.85-1.35-1.11l1.87-.69c.37.62.74 1.25 1.09 1.87zm-7.85-.31c1.18-1.87 2.47-3.69 3.84-5.44.5.26 1.49 1.6 2.55 3.27l-2.8 1.03c-.78.13-1.95.51-3.59 1.14zm-3.29 1.34 3.86-6.62c.98-.18 1.82-.28 2.45-.27-1.5 1.92-2.89 3.94-4.15 6-.66.27-1.38.56-2.16.89zm-.35-5.6c-.77 1.22-1.53 2.41-2.27 3.56-.9 1.4-1.84 2.85-2.78 4.37-1.4.61-2.84 1.21-4.07 1.71.71-2.51 1.55-5.01 2.48-7.46 2.06-.78 4.43-1.55 6.64-2.18zm-11.2 10.41c-.09-2.28.15-4.53.75-6.72.81-.37 1.8-.77 2.89-1.19-.92 2.45-1.74 4.94-2.43 7.46-.46.18-.87.34-1.21.45zm-1.42-5.49c.16-.19.64-.48 1.33-.82-.53 2.14-.74 4.32-.63 6.53-.12.03-.23.04-.29.05-.67-.41-.78-4.27-.41-5.76zm8.97 2.39c-.08.03-.15.07-.23.1.76-1.2 1.51-2.37 2.23-3.49.87-1.35 1.77-2.75 2.68-4.21.78-.21 1.53-.4 2.23-.54l-4.01 6.9c-.9.38-1.85.79-2.9 1.24zm15.6-.54c-.45-.51-.89-1.01-1.34-1.49.42.03.82.02 1.24-.04.67 1.22 1.24 2.36 1.57 3.16-.45-.48-1-1.11-1.47-1.63z" fill="#000000" stroke-width="none" opacity="1"></path></g></g></g><g id="svga-group-beardwrap"><g id="svga-group-beard-single-move" transform="matrix(1,0,0,1,0,-3)"><g id="svga-group-beard-single"><path id="SvgjsPath11528" d="M142.4 84c-2 .3-3 6.8-5.2 11.5s-7.8 17.1-10.7 18.3c-3 1.2-3-.9-5.8-3.3s-12.8-4.9-21.9-.8c0 0-10.3-2.4-17.2-2-6.9.5-7.8 3.2-9.7 4.1s-5.9-3.7-8.3-8.7-4.1-13.3-5.6-15c-1.6-1.7-5.1 9.4-6.8 14.3-1.7 4.9-1 12.3 5.5 23.1 6.6 10.8 21 27 27.2 32.4 6.2 5.5 21.5 3.5 26.7 2.6 5.8-1 26.2-25.8 31.2-32.8s9.4-18.8 9.4-23.8-6.8-20.2-8.8-19.9zM114 133.7c-3.6 2.7-8.7 4-10.8 2.5-2.1-1.4-1-5.1-1-5.1h-6.5s1 3-2 4.8c-2.9 1.8-9.8-1.8-13.1-6.7-3.3-4.9-3.1-12.6-3.1-12.6 10.1 4.4 21.4.1 21.4.1 9.6 3.7 21 .2 21 .2-.2 4.9-2.3 14.1-5.9 16.8z" fill="#ffffff" stroke-width="none" opacity="1"></path><path id="SvgjsPath11529" d="M151.7 103.9c0-4.9-5.7-17.8-8.3-20-.4-.3-.8-.5-1.1-.4-1.6.2-2.4 2.8-3.6 6.3-.6 1.8-1.2 3.8-2 5.5l-.4.8c-2 4.4-7.5 16.2-10.1 17.2-1.7.7-2 .2-3.2-1.1-.5-.6-1.1-1.4-2-2.1-2.9-2.5-13.1-5-22.3-.9-1.5-.3-10.7-2.4-17.2-1.9-5.3.3-7.2 2-8.6 3.2-.5.4-.9.7-1.3.9-.2.1-.4.1-.7 0-1.9-.7-4.9-4.4-6.8-8.4-1-2.3-2-5.3-2.9-7.9-1.1-3.5-2-6.3-3-7.3-.3-.3-.6-.4-1-.3-1.5.3-3.2 4.6-6.1 12.8-.2.7-.5 1.4-.7 2-2.1 6-.2 13.9 5.6 23.5 6.5 10.7 20.8 26.9 27.3 32.6 1.2 1 2.6 1.8 4.2 2.3.1.1.2.2.3.4.1.2.4.1.4-.1 1.2.4 2.6.7 4 .9.1.2.3.1.4 0 1.8.2 3.7.3 5.6.3 2.1 0 4.2-.1 6-.3.2.1.4.1.5 0 .8-.1 1.5-.1 2.1-.2.1.1.4.1.5-.1.9-.1 1.6-.2 2.3-.3.1.1.3.1.4-.1.2 0 .3 0 .4-.1 4.4-.8 15.7-13.3 23.8-23 .1.1.2.1.3 0 .2-.2.3-.5.4-.8 3.2-3.9 5.9-7.4 7.2-9.2 5.4-7.4 9.6-19.3 9.6-24.2zm-7-16.4c-.1.1-.2.2-.2.3-.6-1.2-1.3-2.3-2.1-3.3h.1c.4.2 1.2 1.3 2.2 3zm-22.5 25.3-1.8-1.5c-.8-.6-1.6-1.3-2.5-1.8 1.1.4 2 .9 2.6 1.4.6.6 1.2 1.3 1.7 1.9zm12.9 22.6c-.2-.3-.8-.3-.7.1v.8c-.4.4-.8.9-1.1 1.4.1-1 .1-2 .2-2.9.1-.5-.7-.4-.8 0-.1.9-.2 1.7-.4 2.6-.1.5-.2 1.1-.2 1.7-.5.6-.9 1.1-1.4 1.7.1-.6.1-1.1.1-1.6.1-1.2.2-2.4.4-3.6.1-.4-.6-.6-.7-.2-.4 1.9-1.2 4.5-.7 6.4-.4.4-.7.9-1.1 1.3.5-1.5.4-3.6.2-5-.1-.6-.9-.6-.9 0 0 1 0 2-.1 3s-.5 2-.3 2.9c0 .1.1.1.1.2-.7.8-1.4 1.6-2.2 2.4.8-2.4 1.2-4.9 1.2-7.4 0-.3-.5-.4-.5-.1-.6 2.8-1.1 5.7-1.7 8.5-.4.4-.7.8-1.1 1.2.5-2.1 1.1-4.2 1.1-6.3 0-.4-.5-.4-.6-.1-.6 2.2-.8 4.6-1.3 6.8 0 .1 0 .3.1.3-.8.9-1.6 1.7-2.4 2.5.9-1.9 1.5-4 1.7-6.1 0-.3-.4-.4-.5-.1-.7 2.6-1.4 5-2.5 7.5-.5.5-1.1 1-1.6 1.5.7-1.6 1.4-3.3 1.7-5 .1-.2-.3-.4-.4-.2-.8 1.8-1.4 3.7-2.1 5.5-.1.1 0 .2.1.3-1.4 1.3-2.7 2.4-3.8 3.1.9-1.9 1.8-3.8 2.3-5.8.1-.3-.3-.5-.5-.2-1.1 1.9-1.8 4.2-2.6 6.2v.2c-.4.2-.8.4-1.2.5.4-.9.8-1.9 1-2.9.1-.3-.4-.6-.6-.2-.6 1-1 2.2-1.3 3.3-.5.1-1.1.2-1.9.3.5-1.3 1-2.6 1.2-3.9.1-.3-.4-.5-.5-.2-.7 1.3-1.1 2.8-1.5 4.3-.6.1-1.2.1-1.9.2.2-.8.4-1.7.3-2.4 0-.3-.5-.4-.6-.1-.3.8-.4 1.7-.6 2.6-.6.1-1.2.1-1.8.1.3-1.2.6-2.5.5-3.7 0-.4-.6-.4-.7-.1-.5 1.2-.6 2.6-.7 3.9-.4 0-.9 0-1.3.1.2-.6.3-1.2.4-1.7.2-1 .3-2.1.3-3.1 0-.1-.1-.2-.2-.2.4-1.8.1-3.8.1-5.6 0-.5-.8-.5-.8 0-.1 1.8-.4 3.9.2 5.7 0 .1.1.1.2.2l-.6 2.7c-.1.4-.2.8-.2 1.2-.1.3-.1.5-.2.8-.1.1-.1.2-.1.2-1.4 0-2.9 0-4.4-.1-.7-2.2-1.5-4.2-1.8-6.6-.1-.4-.8-.5-.7 0 .2 2.2.5 4.6 1.6 6.5-.5-.1-1.1-.1-1.6-.2-.7-2-1.5-3.9-2.1-5.9-.1-.3-.6-.2-.5.1.4 1.9 1 3.9 1.8 5.7l-1.5-.3c-1.2-1.9-2.4-3.7-3.1-5.9-.2-.5-1-.3-.9.2.5 1.8 1.3 3.8 2.5 5.3-.4-.1-.8-.3-1.2-.4-1.5-2.6-3.1-5.1-4.2-7.9-.1-.3-.6-.2-.5.1.9 2.5 2 5 3.5 7.2-.8-.4-1.6-.9-2.2-1.4v-.2c-.9-1.9-2.2-3.6-3.2-5.5-.1-.2-.6-.1-.5.2.5 1.2 1 2.5 1.7 3.7-1.7-1.7-3.8-3.8-6-6.2.1-.1.1-.2 0-.3-.9-1.9-2-3.5-2.6-5.5-.1-.4-.7-.2-.6.2.2 1 .5 2.1.9 3.1-.5-.6-1.1-1.2-1.6-1.8-.5-1.8-1.3-3.5-1.8-5.2-.1-.4-.8-.2-.7.2.2 1 .5 2.1.9 3.2-2.9-3.4-5.8-7-8.3-10.4.2 0 .4-.1.3-.3-.2-1.3-.6-2.6-.8-3.9-.1-.3-.7-.3-.6.1.1 1.3.3 2.6.9 3.8-1.9-2.6-3.6-5-5-7.3 0-.1-.1-.1-.1-.2.2 0 .3 0 .3-.2.2-1 .1-2.2.2-3.3 0-.5-.7-.5-.8 0-.1.9-.3 2-.1 2.9-.9-1.6-1.8-3.1-2.5-4.6.1 0 .2 0 .2-.2.1-.5-.1-1.1-.1-1.6 0-.3-.6-.3-.5 0v.9c-.5-1-.9-2-1.2-3 .2.2.5 0 .5-.2.1-.7-.2-1.3 0-2 .1-.4-.5-.6-.7-.2-.1.4-.2.9-.2 1.5-.5-1.4-.8-2.8-1.1-4.1.1 0 .1-.1.1-.1.9-3.3 1.4-6.5 2.8-9.6.2-.5-.5-.9-.7-.4-1.1 2.2-2.2 4.8-2.5 7.4-.1-2 .2-3.9.7-5.6.2-.6.4-1.3.7-2 1.2-3.5 4.1-11.8 5.2-12.1.2.2.4.6.6 1-1.9 1.9-3.3 4.4-4 7-.1.3.3.4.5.2 1.2-2.2 2.5-4.3 3.9-6.3.3.8.7 1.8 1.1 2.9-1.1.6-1.9 1.8-2.6 2.8-.8 1.2-1.5 2.4-1.9 3.7-.1.4.4.6.7.3.8-1.1 1.5-2.3 2.2-3.4.6-.9 1.4-1.7 1.9-2.6.2.4.3.9.5 1.4.1.4.3.8.4 1.3-2 1.8-4.1 4.3-4.7 6.9-.1.5.5.7.8.3.8-1.1 1.3-2.3 2-3.4.7-1 1.4-1.9 2.2-2.8.3.8.5 1.6.8 2.4-2.2 1.9-3.7 4.8-4.2 7.6-.1.3.4.6.6.2 1.3-2.4 2-5 4-7 .3.9.7 1.8 1.1 2.6.1.1.1.3.2.4-1.6 1.7-3.4 3.8-4 6.1-.1.4.5.6.7.3.7-.9 1.1-2 1.7-2.9.6-.9 1.3-1.8 2-2.6.6 1.1 1.3 2.2 2 3.2-1.1.8-1.8 2.1-2.5 3.3-.8 1.4-1.6 3-1.8 4.6 0 .2.3.3.5.1 1.5-2.2 2.1-5.6 4.3-7.3.6.8 1.2 1.5 1.8 2.1-2.3 2.5-3.3 6-3.3 9.3 0 .3.4.3.5.1.9-3.1 1.2-6.2 3.4-8.9.7.6 1.3 1 1.9 1.2.3.1.5.1.7.1-.1.1-.2.3-.3.4-.8.9-1.4 1.9-1.9 3.1-.1.3.3.4.4.2.6-.7 1.1-1.5 1.6-2.2.3-.4.7-.9 1-1.3.1-.1.2-.3.4-.5.3-.2.5-.3.8-.6.1 0 .2-.1.2-.2.1 0 .1-.1.2-.1 1.4-1.2 3.1-2.6 7.9-2.9 6.7-.4 16.9 1.9 17 2h.2l.2-.1c6.7-3.1 13.9-2.4 18.2-.9-.2 0-.4.3-.2.5 1.7 1.6 3.8 3.4 5.8 4.6.2.1.4-.1.4-.2.8.7 1.7.9 3.4.3 1-.4 2.1-1.7 3.4-3.7.2.9.2 1.8.4 2.8 0 .2.3.2.3 0 .1-.9-.1-2-.4-2.9 0-.1-.1-.1-.2-.1.5-.8 1-1.6 1.5-2.5.2 1.9.3 3.9 1 5.7.1.2.5.2.5-.1-.1-1.9-.7-3.9-1.1-5.8 0-.1-.2-.2-.3-.1 1.1-1.9 2.2-4.1 3.3-6.4v.1c.3 1.3.4 2.9.9 4.2.1.3.6.3.7-.1.1-1.4-.5-3-1-4.2-.1-.2-.3-.2-.5-.1.7-1.5 1.4-3.1 2.2-4.6l.4-.8c.4-.8.7-1.6 1-2.4.5 1.7.8 3.6 1.7 5.2.1.2.6.1.5-.1-.2-1.9-1.1-3.8-1.7-5.6-.1-.1-.1-.2-.2-.2.3-.9.6-1.8.9-2.6.6-2 1.4-4.2 2.1-5.1 1.4 2.4 2.3 4.8 3.2 7.3.1.3.6.3.6-.1-.1-.9-.2-1.8-.5-2.6 1.4 3.8 2.4 7.6 3.6 11.5.1.4.8.3.7-.1-.2-2.1-.7-4.2-1.3-6.2 1.4 3.5 2.5 7.1 2.5 9.2v.4c-.1-.4-.1-.8-.1-1.3 0-.6-.9-.6-.9 0 0 1.2.1 2.7.7 3.8-.1.8-.3 1.6-.6 2.4v-.2c-.2-1.2-.3-2.4-.5-3.6-.1-.5-.9-.5-.8 0 .1 1.1.2 2.1.4 3.2.1.9.1 1.8.4 2.6-.1.4-.3.8-.4 1.2-.2-1.3-.5-2.6-.7-3.8-.1-.4-.7-.3-.7.1.2 1.8.3 3.7.7 5.5-.3.7-.6 1.4-.9 2.2-.2-1.6-.7-3.3-1-4.8-.1-.5-.9-.3-.8.2.3 2 .5 4.2 1.1 6.1-.9 2.1-1.9 4.1-3 6 .3-1.6.3-3.2.4-4.8 0-.5-.8-.5-.9 0-.1 1.7-.4 3.5-.1 5.2 0 .2.2.2.3.2-.6 1-1.2 2-1.9 2.8-1.7 1.4-3.9 4.3-6.6 7.6zM124.7 117c-3.5-1-6.3-2.3-8.2-5.5-.2-.3-.7 0-.6.3.9 1.8 2.4 3.6 4.3 4.7l-.4.1s-.2 0-.4.1c.2-.2.2-.4-.1-.5-1.5-.7-3.1-1.2-4.5-2.3-1.3-1-2.3-2.4-2.9-3.9-.2-.3-.7-.1-.6.2.8 3.4 4.1 6 7.6 6.6-.9.2-2.6.6-4.6.8-3.5-1.5-6.2-4.2-7-8-.1-.3-.7-.3-.6.1.5 3.6 2.7 6.8 6.1 8.1-.9.1-1.8.1-2.8.2-3.6-1.8-5.2-5.1-6.5-8.9-.1-.3-.6-.2-.6.2.6 3.2 2.1 6.9 4.9 8.7-1.6-.1-3.2-.2-4.8-.5-1.3-1.1-2.1-2.4-2.4-4.1-.1-.4-.7-.3-.7.1-.1 1.3.4 2.6 1.2 3.6-.7-.2-1.4-.4-2.1-.7l-.2-.1-.2.1s-.4.2-1.2.4c.1-.2.2-.3.3-.5.8-1.2 1.7-2.5 2.1-3.9.1-.4-.4-.6-.6-.2-1.1 1.5-1.8 3.7-3.1 5-1.7.4-4.1.9-6.9 1 3.5-1.2 7-3.9 8.4-7.1.1-.2-.2-.3-.3-.2-1.4 1.6-2.5 3.2-4.2 4.5-1.7 1.3-3.6 2.2-5.7 2.9-1.1 0-2.2-.1-3.3-.2 3.1-.3 6-2.1 8.3-4 .2-.2-.1-.6-.3-.4-3.3 2-6.3 4.2-10.4 4-.1 0-.1 0-.2.1-.6-.1-1.3-.3-1.9-.5 1.6-.1 3.1-.8 4.6-1.6 2.3-1.2 4.5-2.6 6.3-4.4.2-.2-.1-.5-.3-.4-3.1 2.1-7.1 5.5-11.1 5.7 2.4-.8 4.6-2.7 6.1-4.6.2-.2-.1-.5-.3-.3-1.5 1.2-3.2 2.7-5 3.6-2.5 1.2-4.8.5-7.4 0-.2-.1-.4.3-.2.4 1.4.6 3 1.2 4.6 1.2v.9c-.2-.1-.4 0-.4.2-.2 1.3-.3 2.9.1 4.2.1.3.6.2.6-.1 0-.3.1-.6.1-.9.4 2.6 1.2 5.9 2.9 8.5 1.3 2 3.2 3.8 5.2 5.1.1 2.3.2 4.6.9 6.8.1.2.5.2.5-.1-.2-2.1-.5-4.2-.6-6.3 3 1.8 6.1 2.4 7.9 1.3 2.2-1.3 2.5-3.4 2.3-4.7h2.2l-.1.1c-.1 2-.3 4.2-.1 6.2.1.4.6.4.6 0 .3-2 0-4.2-.1-6.2 0-.1 0-.1-.1-.1h2.6c0 .1-.1.2-.1.4-.2-.1-.4 0-.4.2.1 2.4-.3 4.7-.2 7.1 0 .3.5.4.6.1.3-1.4.4-2.8.3-4.1.2.5.6 1 1.1 1.4.2.1.5.3.7.4-.1 1.6-.1 3.3.1 4.9 0 .3.5.4.5.1.3-1.6.2-3.2 0-4.8.4.1.9.1 1.4.1h.8c.2 1.7 0 3.4.2 5.1 0 .3.5.4.6.1.4-1.7.1-3.5-.2-5.2 2.5-.3 5.3-1.6 7.4-3.2 1.1-.8 2.1-2.3 3-4.1-.1 2-.2 4 .1 6 0 .3.5.3.5 0 .2-2.4.1-4.8.1-7.2 0-.1 0-.2-.1-.2.4-1 .8-2 1.1-3.1-.1 1.6 0 3.4.4 5 .1.3.5.2.6-.1 0-1.7-.3-3.5-.4-5.2 0-.2-.2-.3-.4-.2.8-2.8 1.3-5.7 1.4-7.9v-.4c1.2.7 2.6 1.1 4 1 .5-.4.6-.9.2-1zm-11 16.2c-3.4 2.6-8.2 3.8-10.1 2.5-1.8-1.2-.8-4.4-.8-4.5l.2-.7h-8.1l.2.7c0 .1.8 2.6-1.7 4.1-2.4 1.5-9-1.5-12.3-6.5-2.5-3.8-2.9-9.3-3-11.4 9.3 3.6 19.2.5 20.8-.1 4 1.5 8.3 1.8 11.9 1.6h.4c3.7-.2 6.7-.9 8.1-1.2-.4 5.4-2.6 13.2-5.6 15.5zM73.9 114c2.8-1.5 5.3-3.3 8.1-4.6.3-.1.1-.6-.2-.5-2.9 1.2-6 2.5-8.3 4.6-.3.3.1.7.4.5zm-19.7-9.2c-.9 2.4-1.8 5.1-1.6 7.7 0 .4.7.6.8.1.6-2.5.9-5 1.7-7.5.2-.7-.7-.9-.9-.3zm1.6 3.5c-.9 3-1.5 6.4-.8 9.5.1.4.7.3.7-.1.2-3.1.3-6.1 1.1-9.1.2-.7-.8-1-1-.3zm2.1 2.9c-.6 2.6-1.2 5.6-.9 8.3 0 .4.7.5.7.1.4-2.7.5-5.5.8-8.3.1-.3-.6-.4-.6-.1zm2.4 2.6c-.9 2.8-1.3 6-.3 8.8.1.3.5.2.5-.1.1-2.9-.2-5.7.5-8.6.2-.4-.5-.6-.7-.1zm1.9 4.4c-.7 2.8-1.2 6.4.2 9.1.2.3.5.1.6-.1 0-1.4-.3-2.7-.3-4.1 0-1.6.2-3.1.5-4.6 0-.7-.9-.9-1-.3zm3.4 3.2c.1-.6-.9-.6-1 0-.3 2.8-.1 5.9 1.6 8.3.2.3.6.1.5-.2-.8-2.7-1.5-5.2-1.1-8.1zm4 6.9c-.7-3.1-1.3-5.9-.7-9.2.1-.6-.9-.9-1-.3-.6 3.2-.6 6.8.9 9.7.3.5.9.2.8-.2zm2.8 1.9c-.2-3.8-.9-7.2-.3-11 .1-.6-.9-.9-1-.2-.6 3.7-.9 7.9.7 11.4.1.2.6.1.6-.2zm1.8-11.2c-.7 4.7-.7 9.5 1.1 14 .1.4.6.2.6-.1-.8-4.6-1.3-8.9-.7-13.6 0-.7-.9-.9-1-.3zm8 21.7c-2.1-5.4-4-10.5-4.9-16.3-.1-.7-1.2-.4-1.1.3.9 5.6 2.4 11.3 5.4 16.2.1.4.7.2.6-.2zm-7.9-6.3c.8 3.2 1.9 6.7 4 9.2.3.3.7-.1.6-.4-1.3-3.1-2.9-5.8-3.7-9.1-.1-.6-1-.3-.9.3zm-3-2c.7 3.1 1.6 6.4 3.3 9.2.2.3.7.1.6-.2-1-3.1-2.2-6-3-9.2-.2-.6-1-.4-.9.2zm-1.6-2.1c-.2-.6-1-.3-.9.2.7 3.1 1.5 6.7 3.3 9.4.2.4.9.1.7-.3-.8-3.1-2.3-6-3.1-9.3zM67 132c.4 2.2 1.2 4.8 2.7 6.5.2.2.7 0 .6-.3-.8-2.2-2-4.1-2.4-6.4-.2-.6-1-.3-.9.2zm-2.5-1.6c.3 1.6.5 3.5 1.3 5 .2.3.7.2.7-.2-.2-1.7-.9-3.3-1.2-5-.2-.4-.9-.2-.8.2zm-4.7-6.4c0-.5-.7-.5-.8 0-.1 1.1-.2 2.7.5 3.7.2.2.5.2.5-.1 0-.6-.2-1.2-.3-1.7.1-.7.1-1.3.1-1.9zm13.3-5.8c.1-.5.4-1 .4-1.6 0-.1-.2-.2-.3-.2-.5.3-.7 1-.8 1.6-.1.5.6.7.7.2zm11.4 23.7c-.2-1.8-.6-3.6-1-5.4-.3-1.1-.3-2.5-1.3-3.2-.3-.2-.7.2-.4.5.8.8.8 2.9 1 3.9.3 1.4.7 2.9 1.2 4.3 0 .3.5.2.5-.1zm-5.1-2.6c.2 3.2.8 6.5 2.6 9.2.2.2.6.1.5-.2-.9-3.1-2-5.9-2.5-9.1-.1-.2-.7-.1-.6.1zm-3.3 4.2c.7 2.6 1.4 5.6 3.1 7.7.2.3.7 0 .6-.3-.7-2.6-2.2-5-3-7.6-.1-.4-.8-.3-.7.2zm-8.5-5.4c.4.9.8 2 1.5 2.8.2.2.4 0 .4-.2-.2-1-.9-2-1.4-2.9-.2-.3-.7 0-.5.3zm15.8 6.2c.2 2.3.6 4.7 1.9 6.7.2.2.6.1.5-.2-.7-2.2-1.5-4.3-1.9-6.5-.1-.3-.5-.2-.5 0zm1.9-.4c.5 3.1 1.3 6.1 2.7 9 .1.2.4.1.4-.1-.9-3-1.8-6-2.4-9 0-.5-.7-.3-.7.1zm4.2-1.8c-.1-1.9-.5-3.7-.8-5.6-.1-.4-.6-.2-.6.1.3 1.8.5 3.7 1 5.4.1.4.4.4.4.1zm-1.9.8c.3 2.8.7 5.8 1.6 8.5.1.3.6.2.5-.1-.4-2.8-1.1-5.6-1.6-8.4 0-.4-.6-.3-.5 0zm8.5 12.2c-.1 1.9 0 3.9.8 5.6.2.4.6.1.6-.2-.3-1.8-.7-3.5-.6-5.4-.1-.5-.8-.5-.8 0zm-4.7-8.2c0 2.1.2 4.4 1.2 6.2.2.3.6.1.6-.2-.3-2-.9-3.9-1-6 0-.5-.8-.5-.8 0zm2.8-.9c.1 2.7.2 5.4 1.2 8 .1.2.5.2.4-.1-.2-2.6-.8-5.2-.9-7.9 0-.4-.7-.4-.7 0zm-2.2-1.9c-.1-2-.5-4-.6-6 0-.3-.5-.3-.5 0 0 2 .1 4.1.6 6 .1.3.5.3.5 0zm2.6 1.2c.1-1.1-.2-2.2-.2-3.4 0-1.1 0-2.2.2-3.4.1-.3-.6-.4-.6-.1-.4 2.1-.8 4.9.1 6.9 0 .5.4.3.5 0zm2.1-13c0 3.1-.1 6.3.2 9.4 0 .3.5.3.5 0 .4-3.1.2-6.3-.1-9.4-.1-.4-.6-.4-.6 0zm2 7.9c.1 2.6.2 5.2.8 7.8.1.3.6.3.6-.1 0-2.6-.4-5.1-.6-7.7-.1-.5-.8-.5-.8 0zm-.8 10.1c.1.4.7.3.7-.1-.1-2.5-.6-4.9-.7-7.4 0-.3-.5-.3-.6 0-.1 2.4-.2 5.1.6 7.5zm-.2 1.6c.1 2.1.2 4.1.7 6.1.1.2.4.2.5-.1.1-2.1-.2-4.1-.6-6.2-.1-.2-.6-.1-.6.2zm5.4-2.1c-.2 1.9-.5 3.8-.1 5.7.1.3.5.3.6 0 .3-1.9.2-3.8.4-5.7 0-.5-.9-.5-.9 0zm2.9.5c-.1 2-.4 4.1-.5 6.1 0 .3.4.3.5.1.7-2 .8-4.1.8-6.1 0-.5-.7-.5-.8-.1zm-2.6-2.9c0-1.7-.3-3.3-.4-5 0-.2-.4-.2-.4 0-.1 1.6-.2 3.5.3 5.1.2.2.5.1.5-.1zm1.2-7c0 2.2-.3 4.5.1 6.7.1.3.6.3.7 0 .3-2.2.1-4.5.1-6.7-.1-.4-.9-.4-.9 0zm4.6 4.4c.3-2.1.1-4.3 0-6.5 0-.7-1.1-.7-1.1 0 .1 2.2-.1 4.4.3 6.6.1.5.7.3.8-.1zm1.9.1c.3-2.7.3-5.4.4-8.2 0-.5-.7-.5-.8 0-.1 2.7-.3 5.4-.2 8.2 0 .4.5.4.6 0zm-2.1 1.8c-.2 2.1-.5 4.2-.3 6.3 0 .2.4.4.5.1.4-2.1.3-4.3.3-6.4.1-.4-.5-.4-.5 0zm2.1 1.3c-.2 1.7-.6 3.6-.5 5.4 0 .4.6.5.7.1.6-1.7.6-3.7.8-5.5 0-.6-.9-.6-1 0zm2.5-3.7c0 2.1-.3 4.2-.4 6.3 0 .3.4.3.5.1.6-2 .6-4.3.4-6.4 0-.3-.5-.3-.5 0zm3.1.5c-.4 2.1-.9 4.4-.7 6.6 0 .4.6.5.7.1.5-2.1.6-4.3.9-6.4 0-.6-.8-.8-.9-.3zm2.2-3.5c-.5 1.9-.5 4-.7 5.9 0 .4.5.3.6 0 .3-1.9.7-3.9.7-5.9 0-.2-.5-.3-.6 0zm1.5-2.8c.5 2.4.1 4.6 0 7 0 .2.3.3.4.1 1-2.2.7-5 .3-7.3-.1-.4-.8-.3-.7.2zm2.8-2.6c-.3 1.8-.9 4-.6 5.8.1.3.6.3.6 0 .5-1.8.4-3.8.8-5.6.1-.5-.7-.7-.8-.2zm2.3-2.9c0 1.7-.4 3.2-.6 4.9 0 .3.4.4.5.1.7-1.5.9-3.4.9-5 0-.5-.8-.5-.8 0zm-12.1 3.3c0 2.1-.2 4.4.2 6.5.1.4.6.2.6-.1.3-2.1 0-4.3-.1-6.5 0-.3-.7-.3-.7.1zm2.9 0c-.3 1.9-.5 4.1.1 6 .1.3.6.2.6-.1.1-1.9-.1-3.8.2-5.7 0-.5-.8-.7-.9-.2zm3.2-2.3c-.1 1.3-.3 2.6-.3 3.9 0 .3.4.4.5.1.3-1.3.4-2.7.5-4 .1-.5-.7-.5-.7 0zm-3.2 1c.1-.6-.1-1.1-.1-1.7 0-.4-.7-.4-.6 0 .1.6 0 1.2.2 1.8 0 .2.4.1.5-.1zm4.7-13.3c0 3.5 0 7.1.5 10.6 0 .2.4.3.4 0 .2-3.5-.1-7.1-.4-10.6 0-.3-.5-.4-.5 0zm2.1 3c-.3 3.2-.7 6.6-.3 9.9.1.4.6.4.6 0 .2-3.3.1-6.6.3-9.9 0-.4-.6-.4-.6 0zm2 8.2c.6-2.2.4-4.8.5-7.1 0-.5-.8-.5-.8 0-.1 2.3-.5 4.8-.1 7.1 0 .2.3.2.4 0zm-2.7-13.5c.2 1.4.3 2.9.8 4.2.1.2.5.2.5-.1-.1-1.4-.4-2.9-.7-4.3-.1-.2-.7-.1-.6.2zm3.7 5.9c.2-2.1-.3-4.3-.4-6.4 0-.4-.7-.4-.7 0 .1 2.2.1 4.4.5 6.5.1.4.6.3.6-.1zm2.4-2.8c.3-2.7.1-5.3-.3-8-.1-.4-.7-.2-.6.2.4 2.6.5 5.2.6 7.8 0 .3.3.3.3 0zm-1 4c.7 3.4.3 6.8.8 10.1 0 .2.5.2.5 0 .6-3.4.1-7-.8-10.3 0-.3-.6-.2-.5.2zm3.3-2.4c-.2 3.3-.5 6.8-.1 10.1.1.4.6.4.6 0 .4-3.3.2-6.8.4-10.1.1-.6-.8-.6-.9 0zm2.7-.7c-.2 3.3-1 7.1-.4 10.3.1.3.5.2.6 0 .9-3.1.6-7.1.8-10.3 0-.6-1-.6-1 0zm2.1-1.5c-.1 3.3-.7 6.9-.3 10.2 0 .3.5.4.6.1.7-3.3.5-6.9.6-10.3.1-.6-.9-.6-.9 0zm3.4-.3c-.2 2.2-.5 4.5-.4 6.7 0 .4.6.5.7.1.5-2.2.5-4.6.7-6.8 0-.6-.9-.6-1 0zm-1.9 5.9c-.2 1.7-.6 3.4-.6 5.1 0 .4.5.4.6.1.6-1.6.6-3.5.8-5.2 0-.4-.7-.4-.8 0zm3.9-6c.3 1.6.1 3.3.3 4.9 0 .3.5.4.6.1.4-1.6.1-3.5-.2-5.2 0-.4-.8-.2-.7.2zm-9.7-.9c.1-2-.4-4.1-.7-6.1-.1-.3-.7-.3-.6.1.2 2 .2 4.1.7 6.1.1.3.6.2.6-.1zm2.2.1c.1.4.6.2.6-.1.2-1.8-.2-3.8-.4-5.6 0-.4-.6-.4-.6 0 .1 1.8-.1 3.9.4 5.7zm2.7-.2c1-2 .7-4.7.3-6.8-.1-.5-.9-.3-.8.2.2 1.1.2 2.3.2 3.4-.1 1-.3 2-.2 3.1-.1.2.3.4.5.1zm-2.4-15.1c.3 2.1.3 4.2.7 6.3.1.3.5.2.5-.1.2-2.2-.2-4.3-.6-6.4 0-.3-.6-.1-.6.2zm-4.8 19c0 .8 0 1.6.1 2.4 0 .1.3.1.3 0 .1-.8.1-1.6.1-2.4 0-.3-.5-.3-.5 0zm9.6-21.1c.1-1.7-.5-3.5-.8-5.2-.1-.4-.8-.3-.7.1.2 1.7.3 3.6.9 5.2.1.3.6.3.6-.1zm3.6-8.3c-.1-1.9-.8-3.7-1.4-5.5-.1-.4-.7-.2-.6.2.4 1.8.8 3.6 1.5 5.4.1.2.5.2.5-.1zm1.1-3.2c-.2-1.6-.9-3.1-1.4-4.6-.1-.3-.5-.2-.5.1.3 1.5.7 3.2 1.4 4.6.1.3.5.2.5-.1zm5.1 13.2c-.5-3.7-1.7-7.3-2.8-10.9-.1-.4-.7-.2-.6.2.8 3.6 1.4 7.4 2.7 10.8.1.3.7.3.7-.1zm-2.4 2.3c.1.3.5.2.5-.1.2-3.1-.9-6.5-1.7-9.5-.1-.5-.9-.3-.8.2.7 3.1 1 6.4 2 9.4zm-1.4 2.2c.2-3.4-.8-7-1.5-10.3-.1-.3-.7-.3-.6.1.4 3.3.5 7.1 1.6 10.3.1.3.5.2.5-.1zm-3.2-5.8c.3 2.8.1 6.1.9 8.8.1.2.5.3.5 0 .6-2.8-.3-6.2-.8-8.9.1-.4-.6-.3-.6.1zm-1.8 1.1c.3 3.5 0 7.3.8 10.7.1.4.6.3.7-.1.4-3.4-.4-7.3-1-10.7.1-.3-.5-.3-.5.1zm-.7 13.1c.5-3.6-.1-7.2-.7-10.8-.1-.3-.6-.2-.6.1.4 3.5.2 7.1.6 10.6.1.4.7.5.7.1zm2.3 2.4c.2-.9-.2-1.8-.4-2.7-.1-.4-.7-.2-.7.2.1.9.2 1.8.7 2.6.1.1.4.1.4-.1zm1.8-1.2c.1-1.6-.4-3.3-.7-4.8-.1-.3-.6-.3-.6.1.2 1.6.2 3.3.8 4.8.1.2.5.2.5-.1zm.4-5.7c.4 2.3.6 4.7 1.4 6.9.1.3.6.3.6-.1-.1-2.4-.8-4.7-1.3-7.1 0-.4-.7-.2-.7.3zm-3.3-13c.1.4.2.9.6 1.2.1.1.4.1.4-.1.1-.5-.1-.9-.3-1.3l-.6-1.5c-.2-.4-.9-.2-.7.2l.6 1.5zm2.3-6.6c0 1.3-.1 2.9.5 4.1.2.4.8.2.8-.2.1-.7-.1-1.3-.2-1.9-.1-.7-.1-1.3-.1-2 0-.6-1-.6-1 0z" fill="#000000" stroke-width="none" opacity="1"></path></g></g></g><g id="svga-group-mustache-single-move" transform="matrix(1,0,0,1,0,0)"><g id="svga-group-mustache-single"></g></g><g id="svga-group-nose-single-move" transform="matrix(1,0,0,1,0,0)"><g id="svga-group-nose-single"><path id="SvgjsPath11734" d="M107.63 99.2c1.29 1 2.64 2.88 2 4.05-.65 1.17-5.7 2.82-9.1 3.29-3.41.47-9.98-.82-11.04-2-1.06-1.17-.06-2.94.41-3.88s4.4-8.69 5.46-10.04 4.11-2.06 6.69 1.06c2.59 3.12 5.58 7.52 5.58 7.52z" fill="#ffffff" stroke-width="none" opacity="1"></path><path id="SvgjsPath11735" d="M107.86 98.84c-.48-.37-.95.45-.48.81 1.48 1.13 2.98 3.12.69 4.31-1.34.7-2.91 1.17-4.34 1.6-3.34 1-6.52.84-9.88.01-.18-.04-.4-.09-.64-.14.28.01.57.05.84.01.4-.05.36-.1.7-.15.23-.04.38-.34.31-.54 0 .01-.11-.27-.12-.28-.03-.13-.04-.26-.11-.39-.18-.33-.5-.63-.77-.89-.64-.61-1.63-1.09-2.54-.98-.63.07-1.19.39-1.36 1.04-.14.52.04 1.04.41 1.4-.68-.34-1.16-.82-1.12-1.51.08-1.45 1.24-2.99 1.89-4.25 1.57-3.02 3.14-6.03 4.71-9.05.28-.54-.53-1.02-.81-.48-1.15 2.21-2.3 4.41-3.45 6.62-.97 1.86-2.09 3.69-2.89 5.63-.55 1.33-.63 2.87.78 3.68.77.44 1.72.6 2.56.83 1.06.29 2.12.56 3.2.76 4.37.82 8.34-.11 12.39-1.79 1.1-.46 2.25-1.1 2.43-2.39.24-1.72-1.18-2.93-2.4-3.86z" fill="#000000" stroke-width="none" opacity="1"></path><path id="SvgjsPath11736" d="M103.34 105.26c.57.04 1.22-.13 1.76-.27.6-.16 1.32-.39 1.85-.71 1-.6.62-2.31-.61-2.26-.8.03-1.76.4-2.39.91-.32.26-.57.52-.79.86-.06.15-.07.16-.03.05l-.14.17c-.12.15-.18.3-.24.49-.11.4.21.73.59.76z" fill="#000000" stroke-width="none" opacity="1"></path></g></g><g id="svga-group-hair-front"><path id="SvgjsPath11836" d="M53.2 71.9S56 77 56.8 84.7c.3 2.8 3.1 3.5 3.1 3.5s.6-20.4 2.6-23.8c2-3.4 1.1-9.6 3.1-14.1s6.1-11.5 9.2-11.7 17.6 9.2 25.8 9.2 23.7-9.2 25.7-9.2 7.1 6.9 8.6 10.6c1.6 3.7 1.4 17.5 2.4 18.4 1 1 1.8 4.7 2.2 7.8s.7 12.6.7 12.6 2.7-.5 3.5-3.8.4-9.9 1.4-11.1 2-2.4 2-4.9.2-15.7-1.1-20c-1.4-4.3-4.7-13.5-7.6-15.3 0 0 .4-3.5-3.3-7.1-3.7-3.5-10.4-8.6-20.4-10.4 0 0-10.4-3.7-19.2-2.9s-12.7-8-12.7-8-1.2 5.9.8 9.8c0 0-7.6-5.1-8.6-9 0 0-.4 4.1 1.2 8.2 0 0-3.3-2.5-4.1-5.3 0 0-1.6 3.3-.6 6.9 0 0-3.5-.6-4.1-2.9 0 0-5.1 8.2-3.5 18.4 0 0-2.5 1.8-4.1 5.3s-3.9 11-4.3 15.7c-.7 4.7-2.3 20.3-2.3 20.3z" fill="#ffffff" stroke-width="none" opacity="1"></path><path id="SvgjsPath11837" d="M146.9 47.9c-1.2-3.9-4.4-12.9-7.6-15.5v-.5c.1-.2.1-.5-.1-.6-.3-1.5-1.1-3.8-3.5-6.1-6-5.7-13-9.2-20.8-10.6-1.1-.4-10.9-3.7-19.6-3-8 .7-11.6-7.1-11.7-7.5-.2-.4-.6-.6-1-.6s-.8.4-.9.8c0 .2-.7 3.8-.1 7.4-2.4-1.9-5.3-4.6-5.8-6.6-.1-.5-.6-.8-1-.8-.5 0-.9.4-.9.9 0 .1-.2 2.3.3 5-.6-.7-1-1.5-1.2-2.2-.1-.4-.5-.7-.9-.7s-.8.2-1 .6c-.1.1-1.3 2.7-1 5.9-.8-.4-1.7-.9-1.9-1.8-.1-.4-.4-.7-.8-.7-.4-.1-.8.1-1 .5-.2.3-5.1 8.4-3.8 18.5-.9.7-2.7 2.5-4 5.3-1.6 3.6-4 11.1-4.4 16-.4 4.6-1.9 20.2-1.9 20.3 0 .2 0 .4.1.6 0 0 2.7 5 3.5 12.4.4 3.4 3.7 4.3 3.9 4.3h.3c.2 0 .4-.1.6-.2.2-.2.4-.5.4-.8.3-8.1 1.1-21 2.5-23.3.3-.6.6-1.3.8-2 .1-.1.1-.2.1-.3.4-1.5.6-3.1.8-4.9.3-2.4.5-5 1.4-7 2.3-5.2 6.1-10.9 8.3-11.1 1-.1 4.3 1.5 7.5 3 5.8 2.8 13.1 6.2 18.3 6.2 5.8 0 14.7-4.2 20.6-7 2.2-1 4.6-2.2 5.1-2.2 1.3.1 6 6 7.7 10 .8 1.9 1.1 6.9 1.4 11 .4 5.6.5 7.1 1.2 7.7.5.5 1.4 3.2 1.9 7.3.4 3.1.6 12.4.6 12.5 0 .3.1.6.4.7.2.2.5.3.8.2.1 0 3.4-.6 4.3-4.5.4-1.6.5-3.7.6-5.8.1-1.7.3-4.4.6-4.9 1-1.2 2.2-2.6 2.2-5.5v-1c-.1-4.3 0-15.3-1.3-19.4zm-1 7.5c-1.5 4.3-3.4 9.1-8 10.6-.2-1.3-.3-3.6-.5-5.5-.1-.9-.1-1.9-.2-2.8 3.6-2.4 6.2-6 7.4-10.2.1.3.2.7.3 1 .6 1.5.8 4.1 1 6.9zm-1.9-9.9c-.1.1-.2.2-.2.3-.9 4.2-3.2 7.8-6.7 10.4-.2-2.1-.4-4.1-.7-5.6 3-1.3 5.5-3.5 7.1-6.3.2.4.3.8.5 1.2zM137.3 32c-2.4 2-5.1 3.5-8 4.6-.7-4.1.8-8.1 3.9-11 .4.3.7.6 1.1 1 2.3 2.2 2.9 4.3 3 5.4zM126 37.5c-.1 0-.2.1-.2.1-1.5-2.4-2.5-5-2.8-7.8-.2-2.6.2-7.8 3.1-9.2 2.1 1.2 4.2 2.6 6.1 4.2-3.4 3.1-4.9 7.6-4.1 12.2-.7.2-1.4.4-2.1.5zm-13.5-21.7c-6 6.5 1.7 19.4 6.7 24.7-1.1.5-2.3 1.1-3.5 1.6-5.6-3.3-10.6-7.6-14.4-12.9-1.3-1.7-9.2-15.3-6.4-15.7h.5c6.5-.6 13.8 1.4 17.1 2.3zm-20.1-2.4c3.3 12.3 11.1 22.7 22 29.3-.9.4-1.7.8-2.6 1.1-14.4-3.7-24.8-15-27.5-29.1.1-.3.2-.6 0-.9l-.3-.6c-.3-1.7-.4-3.5-.4-5.3 1.7 2.2 4.6 4.9 8.8 5.5zm-9.6 1.7c.1.1.2.1.3.1 2 9.8 7.5 18.3 15.5 23.9-10.2-5.9-18-15.3-21.9-26.7 0-.1-.1-.2-.2-.3-.3-1.1-.5-2.1-.7-3 2.6 3 6.5 5.6 7 6zm-7.5-.8c.2.2.5.2.8.2 5.6 14.7 17.7 26 32.8 30.5-2.3.8-4.4 1.4-6.4 1.7C85.8 42.3 73.9 28.5 72 11.3c0-.1 0-.3.1-.4 1.3 1.9 3.1 3.3 3.2 3.4zm-4.2 1.8h.5c3.1 14 12.9 25.4 26.4 30.4-4.3-.8-9.8-3.3-14.3-5.5 0-.1-.1-.1-.2-.1-9.8-5.4-15.8-15.4-16.1-26.5 1.5 1.3 3.5 1.6 3.7 1.7zm-4.8.1c.7 8.6 4.7 16.5 11.2 22-1.2-.5-2.1-.7-2.8-.7h-.4c-4.1-1.5-8.1-3.6-9.9-7.5-.7-5.5.7-10.6 1.9-13.8zm-8.9 29c1.5 2.9 3.7 5.3 6.5 7.1-.4 1.7-.6 3.5-.8 5.2-.1 1.3-.3 2.6-.5 3.8-2.9-1.8-5.1-4.3-6.6-7.4.1-.9.1-1.6.2-2.2.1-1.9.6-4.2 1.2-6.5zm2.2 31.5c-2.4-3.4-4-7.2-4.7-11.3.1-.7.1-1.3.2-2 1.3 2.5 3.1 4.6 5.2 6.5-.3 2-.5 4.4-.7 6.8zm-1.8 7.8c-.8-6.9-3-11.7-3.6-12.9 0-.4.1-1.3.2-2.5 1 3.4 2.7 6.5 5 9.4-.2 3.2-.4 6.2-.4 7.9-.5-.3-1.1-.9-1.2-1.9zm2.7-16.2c-2.3-2.1-4-4.6-5.2-7.4.2-1.7.3-3.4.5-4.9 1.6 2.7 3.8 4.9 6.5 6.5-.2.5-.3.9-.6 1.3-.5.9-.9 2.5-1.2 4.5zm4.2-18.4c-.2.4-.3.8-.4 1.2-2.9-1.8-5.1-4.5-6.4-7.7l.9-3c2 2.6 4.7 4.5 7.8 5.5-1.1 2.1-1.8 3.8-1.9 4zm2.6-5.1c-3.3-1-6-3-8-5.9.4-1 .7-1.9 1.1-2.7 1.1-2.6 2.8-4.1 3.5-4.6 1.9 3.3 5.3 5.3 8.9 6.7-2.1 1.3-4 4-5.5 6.5zm53.1-4.8c-4.4-4.5-13-17.8-6.6-23.7.2.1.4.1.4.1h.2c3.7.6 7.2 1.8 10.4 3.5-1.9 1.4-2.6 4.1-2.9 6.4-.6 4.2.5 8.3 2.7 11.8-1 .4-2.3 1-4.2 1.9zm7.6-1.7c3.5-1 6.6-2.6 9.4-4.8l.3.3c.7.4 1.4 1.4 2.2 2.7-2 2.8-4.7 4.9-7.9 6.2-1.2-1.9-2.7-3.5-4-4.4zm4.9 5.4c3.1-1.3 5.7-3.3 7.8-6 .8 1.5 1.6 3.2 2.3 5.1-1.4 3-3.8 5.3-6.9 6.6-.1-.2-.1-.4-.2-.6-.5-1.3-1.7-3.2-3-5.1zm5.3 23.4c4.1-1.3 6.3-4.8 7.8-8.6 0 1.6.1 3.1.1 4.5-1.1 3.4-3.4 6.1-6.4 7.8-.4-1.4-.9-2.9-1.5-3.7zm4.5 16.9c-.3 1.3-1 2.1-1.6 2.5 0-1.4-.1-3.6-.2-5.7.9-.5 1.7-1.1 2.4-1.9-.2 1.9-.3 3.8-.6 5.1zm3.4-15.8c0 2.1-.8 3.1-1.8 4.3-.5.6-.7 1.9-.9 3.8-.5 1.3-1.4 2.4-2.6 3.2-.1-1.6-.2-3.1-.3-4.1-.1-.8-.3-1.9-.5-3.1 2.6-1.4 4.7-3.5 6.1-6.1v2z" fill="#000000" stroke-width="none" opacity="1"></path></g><g id="svga-group-glasses-single-move" transform="matrix(1,0,0,1,0,0)"><g id="svga-group-glasses-single" transform="matrix(1.0500002000000002,0,0,1.0500002000000002,-4.985019978147136,-4.422139499400345)"><path id="SvgjsPath11760" d="M94 84.7c-1.1-5-4.7-12-15.5-12.3s-15.6 7.8-16.5 15c-.8 7.2 4.9 13.9 8.8 15.6 3.8 1.7 11.7 3.3 17.7-2.1s6.6-11.3 5.5-16.2z" fill="#000000" stroke-width="none" opacity="1"></path><path id="SvgjsPath11761" d="M105.4 84.7c1.1-5 4.7-12 15.5-12.3s15.6 7.8 16.5 15-4.9 13.9-8.8 15.6-11.7 3.3-17.7-2.1c-6.1-5.5-6.6-11.3-5.5-16.2z" fill="#000000" stroke-width="none" opacity="1"></path><path id="SvgjsPath11762" d="m65.6 88.7 13.6-11.3.2.2-13.6 11.3-.2-.2zm7.8 12L87 89.4l.2.2-13.6 11.3-.2-.2zm-1.3-5 18.5-15.4.2.2-18.5 15.4-.2-.2zm-5.4-1.4 18.2-15.1.2.2-18.2 15.1-.2-.2z" fill="#ffffff" stroke-width="none" opacity="1"></path><path id="SvgjsPath11763" d="m108 88.7 13.6-11.3.2.2-13.6 11.3-.2-.2zm7.7 12 13.6-11.3.2.2-13.6 11.3-.2-.2zm-1.2-5L133 80.3l.2.2-18.5 15.4-.2-.2zm-5.4-1.4 18.2-15.1.2.2-18.2 15.1-.2-.2z" fill="#ffffff" stroke-width="none" opacity="1"></path><path id="SvgjsPath11764" d="M140.5 86.2c-.2-.1-1.7-.1-2.6-.1-1.2-7.1-6.3-14.8-17.1-14.4-10.6.3-14.5 6.8-15.8 11.5-.5-.6-1.3-1-1.8-1.1-.6-.1-4.8-.2-6.5-.1-1.8.2-2.2 1.2-2.2 1.2l-.1.1C93 78.6 89.2 72 78.5 71.7c-10.7-.4-15.7 7.3-17 14.4-.9 0-2.4 0-2.5.1-.2.2 0 2.1 0 2.1l2.3.1c-.2 6.9 5.1 13.5 9.3 15.3 1 .4 4.2 1.7 8.1 1.7 3.3 0 7.1-.9 10.4-3.9 5.2-4.7 7.1-10.2 5.7-16.8.1-.2.2-.3.3-.5.3-.4 1.1-1.1 1.8-1.2.7-.1 4.7 0 5.3 0s1.4.4 1.8.8c.2.2.4.6.6.9-1.4 6.6.4 12.1 5.7 16.8 3.3 3 7.1 3.9 10.4 3.9 3.9 0 7.1-1.2 8.1-1.7 4.2-1.8 9.5-8.4 9.3-15.3l2.3-.1c.1 0 .3-1.9.1-2.1zm-52.4 14.1c-6.6 6-15.3 2.7-16.9 2-3.3-1.4-9.2-7.8-8.3-14.8.8-6.7 5.2-14.3 15.1-14.3h.6c10.1.3 13.6 6.5 14.8 11.7 1.2 6-.5 11-5.3 15.4zm40.2 1.9c-1.7.7-10.3 4-16.9-2-4.8-4.4-6.5-9.4-5.2-15.4 1.1-5.2 4.6-11.4 14.8-11.7h.6c9.9 0 14.3 7.7 15.1 14.3.7 7-5.1 13.4-8.4 14.8z" fill="#ffffff" stroke-width="none" opacity="1"></path><path id="SvgjsPath11765" d="M78.6 72.9c-10.5-.3-15.2 7.7-16 14.5-.8 7.1 5.1 13.6 8.5 15 .9.4 3.9 1.6 7.6 1.6 3 0 6.5-.8 9.6-3.6 4.9-4.4 6.6-9.6 5.3-15.7-1.2-5.1-4.8-11.5-15-11.8zm9.3 27.2c-6.5 5.9-15 2.6-16.7 1.9-3.3-1.4-9-7.7-8.2-14.5.8-6.5 5.1-14.1 14.9-14.1h.6c10 .3 13.4 6.4 14.5 11.5 1.4 5.9-.3 10.9-5.1 15.2zM140.6 86c-.1-.1-.2-.2-2.5-.2-1.3-7.2-6.5-14.8-17.3-14.4-10.3.3-14.3 6.2-15.9 11.3-.5-.5-1.2-.8-1.6-.9-.7-.1-4.8-.2-6.6-.1-1.2.1-1.8.6-2.2 1-1.6-5.1-5.7-11-15.9-11.3-10.7-.3-15.9 7.2-17.3 14.4-2.2 0-2.4.1-2.5.2-.1.1-.3.2-.1 2.3v.2H61c-.1 7.2 5.5 13.6 9.4 15.3.9.4 4.2 1.7 8.2 1.7 4.1 0 7.7-1.3 10.6-4 5.3-4.8 7.2-10.3 5.8-17 .1-.1.2-.3.2-.4.3-.4 1-1 1.7-1.1.7-.1 4.5 0 5.3 0 .6 0 1.3.4 1.7.8.1.1.3.3.5.8-1.4 6.6.5 12.2 5.8 16.9 2.9 2.6 6.5 4 10.6 4 4 0 7.3-1.3 8.2-1.7 4-1.7 9.6-8.1 9.4-15.3h2.3v-.2c.2-2 0-2.2-.1-2.3zm-.4 2-2.3.1v.2c.2 7-5.2 13.4-9.1 15.1-.9.4-4.1 1.7-8 1.7-4 0-7.4-1.3-10.2-3.8-5.2-4.7-7-10.1-5.6-16.5v-.2c-.2-.5-.5-.8-.7-1-.5-.4-1.2-.8-2-.9-.4 0-2.1-.1-3.5-.1-.9 0-1.6 0-1.9.1-.8.2-1.7.9-2 1.3-.1.2-.2.3-.3.5v.2c1.4 6.5-.4 11.9-5.6 16.6-2.8 2.6-6.3 3.8-10.2 3.8-3.9 0-7.1-1.3-8-1.7-3.9-1.7-9.4-8-9.1-15.1v-.2l-2.5-.1c-.1-.7-.1-1.4 0-1.6.2 0 .9-.1 2.4-.1h.2v-.2C63 79 68.1 71.6 78.6 71.9c10.3.3 14.2 6.4 15.6 11.4l.2.5.4-.6s.4-.9 2-1c1.8-.2 5.9-.1 6.4.1.4.1 1.2.6 1.7 1.1l.3.3.1-.4c1.5-5 5.4-11 15.6-11.4 10.5-.3 15.6 7.1 16.8 14.2v.2h.2c1.4 0 2.2 0 2.4.1 0 .3 0 1-.1 1.6zm-18.7-15.1h-.6c-10.3.3-13.8 6.7-15 11.9-1.3 6.1.4 11.2 5.3 15.7 3.1 2.8 6.5 3.6 9.6 3.6 3.7 0 6.7-1.2 7.6-1.6 3.4-1.5 9.3-7.9 8.5-15-.8-6.8-5.3-14.6-15.4-14.6zm6.7 29.1c-1.6.7-10.1 4-16.7-1.9-4.8-4.3-6.4-9.3-5.1-15.2 1.1-5.1 4.6-11.2 14.5-11.5h.6c9.8 0 14.1 7.6 14.8 14.1.8 6.8-4.9 13.1-8.1 14.5z" fill="#000000" stroke-width="none" opacity="1"></path></g></g></g></g></g><rect id="svga-credit-rect" width="200" height="15" x="0" y="185" fill="#ecf0f1" opacity="0.5" style="display: none;"></rect><text id="svga-credit-text" font-family="Avenir Next, Roboto, Helvetica, Arial, sans-serif" font-size="10px" text-anchor="start" font-weight="400" size="10px" anchor="start" weight="400" fill="#333333" x="33.402061462402344" y="182.71133995056152" style="display: none;"><tspan id="SvgjsTspan11527" dy="13" x="33.402061462402344">Created on AvatarMaker.com</tspan></text></g><defs id="SvgjsDefs11474"></defs></svg>